<svg xmlns="http://www.w3.org/2000/svg" xmlns:xlink="http://www.w3.org/1999/xlink" width="85" zoomAndPan="magnify" viewBox="0 0 63.75 63.749997" height="85" preserveAspectRatio="xMidYMid meet" version="1.0"><defs><clipPath id="3a542a335f"><path d="M 29 34 L 35 34 L 35 49.722656 L 29 49.722656 Z M 29 34 " clip-rule="nonzero"/></clipPath><clipPath id="37fb29cb6e"><path d="M 5.359375 13.863281 L 58.402344 13.863281 L 58.402344 49.722656 L 5.359375 49.722656 Z M 5.359375 13.863281 " clip-rule="nonzero"/></clipPath></defs><path fill="#737373" d="M 25.359375 34.84375 C 26.4375 34.84375 27.3125 33.96875 27.3125 32.890625 C 27.3125 31.8125 26.4375 30.9375 25.359375 30.9375 C 24.28125 30.9375 23.40625 31.8125 23.40625 32.890625 C 23.40625 33.96875 24.28125 34.84375 25.359375 34.84375 Z M 25.359375 34.84375 " fill-opacity="1" fill-rule="evenodd"/><g clip-path="url(#3a542a335f)"><path fill="#8cc9f0" d="M 30.566406 40.1875 L 31.605469 34.699219 L 29.488281 34.695312 C 29.328125 34.695312 29.195312 34.84375 29.195312 35.023438 L 29.195312 49.628906 L 34.296875 49.628906 L 34.296875 35.023438 C 34.296875 34.84375 34.167969 34.695312 34.007812 34.695312 L 31.894531 34.695312 L 32.929688 40.1875 L 32.734375 40.511719 L 31.746094 42.183594 L 30.761719 40.511719 Z M 30.566406 40.1875 " fill-opacity="1" fill-rule="evenodd"/></g><path fill="#737373" d="M 29.792969 30.976562 C 29.792969 32.054688 30.667969 32.929688 31.746094 32.929688 C 32.824219 32.929688 33.699219 32.054688 33.699219 30.976562 C 33.699219 29.898438 32.824219 29.023438 31.746094 29.023438 C 30.667969 29.023438 29.792969 29.898438 29.792969 30.976562 Z M 29.792969 30.976562 " fill-opacity="1" fill-rule="evenodd"/><g clip-path="url(#37fb29cb6e)"><path fill="#8cc9f0" d="M 40.6875 46.699219 L 40.6875 33.308594 C 40.6875 33.039062 40.554688 32.820312 40.394531 32.820312 L 38.25 32.820312 L 39.316406 37.769531 L 38.113281 40 L 36.953125 37.769531 L 38.019531 32.820312 L 35.875 32.820312 C 35.714844 32.820312 35.582031 33.042969 35.582031 33.308594 C 35.582031 37.199219 35.714844 45.738281 35.714844 49.628906 L 46.476562 49.628906 C 52.90625 49.628906 58.117188 44.417969 58.117188 37.988281 C 58.117188 31.5625 52.90625 26.351562 46.476562 26.351562 L 46.101562 26.355469 C 45.125 19.300781 39.070312 13.863281 31.746094 13.863281 C 24.421875 13.863281 18.367188 19.300781 17.394531 26.355469 L 17.015625 26.351562 C 10.585938 26.351562 5.375 31.5625 5.375 37.988281 C 5.375 44.417969 10.585938 49.628906 17.015625 49.628906 L 27.9375 49.628906 L 27.910156 36.667969 C 27.910156 36.398438 27.777344 36.179688 27.617188 36.179688 L 25.476562 36.179688 L 26.539062 41.375 L 25.382812 43.878906 L 24.179688 41.375 L 25.242188 36.179688 L 23.101562 36.179688 C 22.941406 36.179688 22.808594 36.398438 22.808594 36.667969 L 22.808594 46.699219 L 17.015625 46.699219 C 12.207031 46.699219 8.308594 42.796875 8.308594 37.988281 C 8.308594 33.183594 12.207031 29.28125 17.015625 29.28125 L 17.285156 29.285156 C 18.347656 29.320312 19.359375 29.542969 20.292969 29.921875 C 20.222656 29.410156 20.1875 28.886719 20.1875 28.355469 C 20.1875 27.832031 20.222656 27.320312 20.289062 26.816406 C 21.042969 21.160156 25.882812 16.796875 31.746094 16.796875 C 37.605469 16.796875 42.449219 21.160156 43.203125 26.816406 C 43.269531 27.320312 43.304688 27.832031 43.304688 28.355469 C 43.304688 28.886719 43.269531 29.410156 43.199219 29.921875 C 44.132812 29.542969 45.144531 29.320312 46.207031 29.285156 L 46.476562 29.28125 C 51.285156 29.28125 55.1875 33.183594 55.1875 37.988281 C 55.1875 42.796875 51.285156 46.699219 46.476562 46.699219 L 40.683594 46.699219 Z M 40.6875 46.699219 " fill-opacity="1" fill-rule="evenodd"/></g><path fill="#737373" d="M 38.136719 31.382812 C 39.210938 31.382812 40.085938 30.507812 40.085938 29.429688 C 40.085938 28.351562 39.214844 27.476562 38.136719 27.476562 C 37.058594 27.476562 36.183594 28.351562 36.183594 29.429688 C 36.183594 30.507812 37.054688 31.382812 38.136719 31.382812 Z M 38.136719 31.382812 " fill-opacity="1" fill-rule="evenodd"/></svg>