<svg xmlns="http://www.w3.org/2000/svg" xmlns:xlink="http://www.w3.org/1999/xlink" width="85" zoomAndPan="magnify" viewBox="0 0 63.75 63.749997" height="85" preserveAspectRatio="xMidYMid meet" version="1.0"><defs><clipPath id="ed438ec772"><path d="M 29 34 L 35 34 L 35 50.609375 L 29 50.609375 Z M 29 34 " clip-rule="nonzero"/></clipPath><clipPath id="01cdae2264"><path d="M 4.464844 13.257812 L 59 13.257812 L 59 50.609375 L 4.464844 50.609375 Z M 4.464844 13.257812 " clip-rule="nonzero"/></clipPath></defs><path fill="#8cc9f0" d="M 25.144531 34.949219 C 26.261719 34.949219 27.164062 34.042969 27.164062 32.929688 C 27.164062 31.816406 26.261719 30.910156 25.144531 30.910156 C 24.03125 30.910156 23.125 31.816406 23.125 32.929688 C 23.125 34.042969 24.03125 34.949219 25.144531 34.949219 Z M 25.144531 34.949219 " fill-opacity="1" fill-rule="evenodd"/><g clip-path="url(#ed438ec772)"><path fill="#ffffff" d="M 30.53125 40.472656 L 31.601562 34.796875 L 29.414062 34.792969 C 29.25 34.792969 29.113281 34.949219 29.113281 35.132812 L 29.113281 50.234375 L 34.386719 50.234375 L 34.386719 35.132812 C 34.386719 34.945312 34.25 34.792969 34.085938 34.792969 L 31.902344 34.792969 L 32.96875 40.472656 L 32.769531 40.8125 L 31.75 42.535156 L 30.730469 40.8125 Z M 30.53125 40.472656 " fill-opacity="1" fill-rule="evenodd"/></g><path fill="#8cc9f0" d="M 29.730469 30.949219 C 29.730469 32.0625 30.632812 32.96875 31.75 32.96875 C 32.863281 32.96875 33.769531 32.066406 33.769531 30.949219 C 33.769531 29.835938 32.863281 28.929688 31.75 28.929688 C 30.636719 28.929688 29.730469 29.835938 29.730469 30.949219 Z M 29.730469 30.949219 " fill-opacity="1" fill-rule="evenodd"/><g clip-path="url(#01cdae2264)"><path fill="#ffffff" d="M 40.992188 47.203125 L 40.992188 33.359375 C 40.992188 33.082031 40.855469 32.859375 40.6875 32.859375 L 38.472656 32.859375 L 39.574219 37.972656 L 38.332031 40.277344 L 37.132812 37.972656 L 38.234375 32.859375 L 36.019531 32.859375 C 35.851562 32.859375 35.714844 33.085938 35.714844 33.359375 C 35.714844 37.382812 35.851562 46.214844 35.851562 50.238281 L 46.980469 50.238281 C 53.625 50.238281 59.015625 44.847656 59.015625 38.203125 C 59.015625 31.554688 53.625 26.167969 46.980469 26.167969 L 46.589844 26.171875 C 45.582031 18.875 39.320312 13.257812 31.75 13.257812 C 24.175781 13.257812 17.914062 18.875 16.90625 26.171875 L 16.519531 26.167969 C 9.871094 26.167969 4.484375 31.554688 4.484375 38.203125 C 4.484375 44.847656 9.871094 50.238281 16.519531 50.238281 L 27.8125 50.238281 L 27.78125 36.832031 C 27.78125 36.558594 27.644531 36.332031 27.480469 36.332031 L 25.265625 36.332031 L 26.363281 41.699219 L 25.171875 44.289062 L 23.925781 41.699219 L 25.023438 36.332031 L 22.808594 36.332031 C 22.644531 36.332031 22.507812 36.558594 22.507812 36.832031 L 22.507812 47.203125 L 16.515625 47.203125 C 11.546875 47.203125 7.515625 43.171875 7.515625 38.203125 C 7.515625 33.230469 11.546875 29.199219 16.515625 29.199219 L 16.796875 29.203125 C 17.894531 29.234375 18.941406 29.464844 19.90625 29.859375 C 19.835938 29.328125 19.796875 28.789062 19.796875 28.238281 C 19.796875 27.699219 19.832031 27.167969 19.902344 26.648438 C 20.679688 20.800781 25.6875 16.289062 31.75 16.289062 C 37.808594 16.289062 42.816406 20.800781 43.59375 26.648438 C 43.664062 27.167969 43.699219 27.699219 43.699219 28.238281 C 43.699219 28.789062 43.664062 29.328125 43.589844 29.859375 C 44.554688 29.464844 45.605469 29.234375 46.699219 29.203125 L 46.980469 29.199219 C 51.953125 29.199219 55.984375 33.230469 55.984375 38.203125 C 55.984375 43.171875 51.953125 47.203125 46.980469 47.203125 Z M 40.992188 47.203125 " fill-opacity="1" fill-rule="evenodd"/></g><path fill="#8cc9f0" d="M 38.355469 31.371094 C 39.46875 31.371094 40.371094 30.464844 40.371094 29.351562 C 40.371094 28.234375 39.46875 27.332031 38.355469 27.332031 C 37.238281 27.332031 36.335938 28.234375 36.335938 29.351562 C 36.335938 30.464844 37.238281 31.371094 38.355469 31.371094 Z M 38.355469 31.371094 " fill-opacity="1" fill-rule="evenodd"/></svg>